<?xml version="1.0" encoding="UTF-8"?>
<svg width="166px" height="177px" viewBox="0 0 166 177" version="1.1" xmlns="http://www.w3.org/2000/svg" xmlns:xlink="http://www.w3.org/1999/xlink">
    <!-- Generator: Sketch 40.3 (33839) - http://www.bohemiancoding.com/sketch -->
    <title>image-supercrush</title>
    <desc>Created with Sketch.</desc>
    <defs>
        <path d="M0,5.99856619 C0,2.68564956 2.68256989,1.08982038e-13 5.99856619,1.07969627e-13 L214.001434,4.44639944e-14 C217.31435,4.34525234e-14 220,2.68256989 220,5.99856619 L220,214.001434 C220,217.31435 217.31743,220 214.001434,220 L5.99856619,220 C2.68564956,220 0,217.31743 0,214.001434 L0,5.99856619 Z" id="path-1"></path>
    </defs>
    <g id="Illustrations" stroke="none" stroke-width="1" fill="none" fill-rule="evenodd">
        <g id="supercrush" transform="translate(-26.000000, -43.000000)">
            <g id="image-supercrush">
                <mask id="mask-2" fill="white">
                    <use xlink:href="#path-1"></use>
                </mask>
                <g id="Mask" transform="translate(110.000000, 110.000000) scale(1, -1) translate(-110.000000, -110.000000) "></g>
                <g id="illustration" mask="url(#mask-2)">
                    <g transform="translate(26.000000, 43.000000)">
                        <path d="M7.6942491,78.5584895 C7.6942491,78.5584895 -9.53496048,124.276523 20.2853988,142.497147 C50.1057581,160.718765 21.2794108,114.33782 21.2794108,114.33782 C21.2794108,114.33782 13.327315,105.392987 14.9833389,81.5401003 C16.6403569,57.6872133 7.6942491,78.5584895 7.6942491,78.5584895" id="Fill-1" fill="#424260"></path>
                        <path d="M14.6523329,177.988427 L90.1972431,177.988427 L90.1972431,2.03047701 C90.1972431,2.03047701 30.8050275,-1.94500416 21.0309078,77.5099563 C15.2596743,124.429579 14.6523329,170.988427 14.6523329,170.988427" id="Fill-3" fill="#313143"></path>
                        <path d="M165.742153,177.988427 L90.1972431,177.988427 L90.1972431,2.03047701 C90.1972431,2.03047701 149.837962,0.291203995 159.363578,77.5099563 C165.150716,124.427591 165.742153,170.988427 165.742153,170.988427" id="Fill-5" fill="#424260"></path>
                        <path d="M30.5565246,85.1843245 C30.5565246,85.1843245 31.9362132,105.644138 47.024321,123.756431 C56.243782,134.823176 72.6360335,147.798153 92.8482731,149.122982 C114.701626,150.556143 119.02359,127.257836 92.1852671,124.608177 C74.5574587,122.866917 47.7857341,107.049471 36.5205964,80.8778846 C25.2554587,54.7053043 30.5565246,85.1843245 30.5565246,85.1843245" id="Fill-7" fill="#61617C"></path>
                        <path d="M90.1972431,114.33782 L90.1972431,45.7607698 C90.1972431,45.7607698 78.7661054,23.3986883 54.909818,27.3741694 C31.0535305,31.3496506 29.0655066,64.6443054 44.9696982,83.0309058 C62.5925365,103.404253 90.1972431,114.33782 90.1972431,114.33782" id="Fill-9" fill="#F8D5E2"></path>
                        <path d="M90.1972431,114.33782 L90.1972431,45.7607698 C90.1972431,45.7607698 101.707902,23.3986883 125.564189,27.3741694 C149.420477,31.3496506 151.36874,64.6443054 135.464549,83.0309058 C117.842704,103.404253 90.1972431,114.33782 90.1972431,114.33782" id="Fill-11" fill="#F8BACD"></path>
                        <path d="M22.6044287,90.0672093 L22.6044287,62.1772211 C22.6044287,62.1772211 17.9107042,53.083308 8.20815329,54.7003349 C-1.49340359,56.316368 -2.27966707,69.8568569 4.18836886,77.334737 C11.3551952,85.6206336 22.6044287,90.0672093 22.6044287,90.0672093" id="Fill-13" fill="#FF769B"></path>
                        <path d="M22.6044287,90.0672093 L22.6044287,62.1772211 C22.6044287,62.1772211 27.2414946,53.083308 36.9430515,54.7003349 C46.6456024,56.316368 47.4596982,69.8568569 40.9916623,77.334737 C33.8248359,85.6206336 22.6044287,90.0672093 22.6044287,90.0672093" id="Fill-15" fill="#F33D6D"></path>
                        <path d="M60.1312635,75.8339928 C53.5171078,75.8339928 50.7716467,71.4579819 49.4466287,67.2757757 C49.4466287,67.3036041 49.4426527,67.3304386 49.4426527,67.358267 C49.4426527,73.2608626 51.9117784,80.2557218 60.1312635,80.2557218 C68.3507485,80.2557218 70.8198743,73.2608626 70.8198743,67.358267 C70.8198743,67.3304386 70.8158982,67.3036041 70.8158982,67.2757757 C69.6519102,71.2651711 66.7454192,75.8339928 60.1312635,75.8339928" id="Fill-17" fill="#BF3A63"></path>
                        <path d="M120.765994,75.8339928 C114.151838,75.8339928 111.406377,71.4579819 110.081359,67.2757757 C110.081359,67.3036041 110.077383,67.3304386 110.077383,67.358267 C110.077383,73.2608626 112.546509,80.2557218 120.765994,80.2557218 C128.985479,80.2557218 131.454605,73.2608626 131.454605,67.358267 C131.454605,67.3304386 131.450629,67.3036041 131.450629,67.2757757 C130.286641,71.2651711 127.38015,75.8339928 120.765994,75.8339928" id="Fill-19" fill="#7C2846"></path>
                        <path d="M90.1972431,98.9636404 L90.1972431,84.699614 C84.2331713,84.699614 78.7661054,80.7539489 74.9560575,84.676755 C71.1450156,88.599561 76.2810754,98.9636404 90.1972431,98.9636404" id="Fill-21" fill="#ED94B4"></path>
                        <path d="M90.1972431,94.9157061 L90.1972431,86.3435748 C84.2331713,86.3435748 77.6945605,82.6821567 74.9560575,84.6768544 C71.1052551,87.4805624 78.2690994,94.9157061 90.1972431,94.9157061" id="Fill-23" fill="#313143"></path>
                        <path d="M90.1972431,88.3406578 L90.1972431,93.4869182 C90.1972431,93.4869182 84.0045485,93.4759856 81.1507401,91.7178291 C78.9718659,90.3751103 84.1218419,90.3751103 84.1218419,90.3751103 C84.1218419,90.3751103 77.9689078,88.6219231 77.7005246,86.9740861 C77.240297,84.1355926 83.2391593,88.3406578 90.1972431,88.3406578" id="Fill-25" fill="#FFFFFF"></path>
                        <path d="M90.1972431,98.9636404 L90.1972431,84.699614 C96.161315,84.699614 101.628381,80.7539489 105.438429,84.676755 C109.249471,88.599561 104.113411,98.9636404 90.1972431,98.9636404" id="Fill-27" fill="#F8D5E2"></path>
                        <path d="M90.1972431,94.9157061 L90.1972431,86.3435748 C96.161315,86.3435748 102.699926,82.6821567 105.438429,84.6768544 C109.289231,87.4805624 102.125387,94.9157061 90.1972431,94.9157061" id="Fill-29" fill="#313143"></path>
                        <path d="M90.1972431,88.3406578 L90.1972431,93.4869182 C90.1972431,93.4869182 96.5996743,93.4759856 99.4524886,91.7178291 C101.631363,90.3751103 96.5857581,90.3751103 96.5857581,90.3751103 C96.5857581,90.3751103 102.582632,88.6219231 102.850022,86.9740861 C103.311243,84.1355926 97.1553269,88.3406578 90.1972431,88.3406578" id="Fill-31" fill="#FFFFFF"></path>
                        <path d="M90.1972431,75.5768786 L90.1972431,79.5523597 C87.2152072,79.5523597 83.1636144,75.2091466 85.2271832,74.417032 C86.2520096,74.0244532 87.5462132,75.5768786 90.1972431,75.5768786" id="Fill-33" fill="#ED94B4"></path>
                        <path d="M90.1972431,75.5768786 L90.1972431,79.5523597 C93.179279,79.5523597 97.2308719,75.2091466 95.167303,74.417032 C94.1424766,74.0244532 93.179279,75.5768786 90.1972431,75.5768786" id="Fill-35" fill="#F8D5E2"></path>
                        <path d="M66.3409557,27.3741694 C66.3409557,27.3741694 83.1377701,67.9697954 125.402165,59.3618848 C167.667554,50.7539742 166.736165,-1.69653659 129.212213,0.0427364225 C97.5459737,1.51068284 89.9487401,38.0582751 89.9487401,38.0582751 C89.9487401,38.0582751 79.0146084,29.1134425 66.3409557,27.3741694" id="Fill-37" fill="#6AB7C7"></path>
                        <path d="M125.402463,59.3618848 C167.203649,50.8483919 166.74541,-0.541659309 130.429182,0.0129203138 C135.259086,7.99369876 136.671577,38.5144615 115.047841,47.4175516 C86.8835054,59.0120424 66.3412539,27.3741694 66.3412539,27.3741694 C66.3412539,27.3741694 83.1370743,67.9697954 125.402463,59.3618848" id="Fill-39" fill="#4D99A3"></path>
                    </g>
                </g>
            </g>
        </g>
    </g>
</svg>