<?xml version="1.0" encoding="UTF-8"?>
<svg width="184px" height="216px" viewBox="0 0 184 216" version="1.1" xmlns="http://www.w3.org/2000/svg" xmlns:xlink="http://www.w3.org/1999/xlink">
    <!-- Generator: Sketch 40.3 (33839) - http://www.bohemiancoding.com/sketch -->
    <title>image-ohmighty@3x</title>
    <desc>Created with Sketch.</desc>
    <defs>
        <path d="M0,5.99856619 C0,2.68564956 2.68256989,1.08982038e-13 5.99856619,1.07969627e-13 L214.001434,4.44639944e-14 C217.31435,4.34525234e-14 220,2.68256989 220,5.99856619 L220,214.001434 C220,217.31435 217.31743,220 214.001434,220 L5.99856619,220 C2.68564956,220 0,217.31743 0,214.001434 L0,5.99856619 Z" id="path-1"></path>
        <polygon id="path-3" points="35.0575492 166.480176 0 166.480176 0 0.941343939 70.1150984 0.941343939 70.1150984 166.480176"></polygon>
        <polygon id="path-5" points="50.2489397 0.315436123 0.382992593 0.315436123 0.382992593 56.1796604 50.2489397 56.1796604 50.2489397 0.315436123"></polygon>
    </defs>
    <g id="Illustrations" stroke="none" stroke-width="1" fill="none" fill-rule="evenodd">
        <g id="ohmighty" transform="translate(-36.000000, -4.000000)">
            <g id="image-ohmighty">
                <mask id="mask-2" fill="white">
                    <use xlink:href="#path-1"></use>
                </mask>
                <g id="Mask" transform="translate(110.000000, 110.000000) scale(1, -1) translate(-110.000000, -110.000000) "></g>
                <g id="illustration" mask="url(#mask-2)">
                    <g transform="translate(36.000000, 3.000000)">
                        <path d="M132.000432,133.952676 C132.000432,133.952676 146.029215,127.134777 147.75531,113.105658 C149.566104,98.3882264 139.666125,87.1912176 139.666125,87.1912176 L138.899945,78.7581692 C138.899945,78.7581692 155.198061,90.3611559 157.710781,109.421676 C160.411395,129.899711 150.675945,146.937156 135.833278,159.249874 C119.062993,173.163138 132.000432,133.952676 132.000432,133.952676" id="Fill-1" fill="#4D99A3"></path>
                        <g id="Group-5" stroke-width="1" fill="none" transform="translate(0.000000, 54.204388)">
                            <mask id="mask-4" fill="white">
                                <use xlink:href="#path-3"></use>
                            </mask>
                            <g id="Clip-4"></g>
                            <path d="M2.94049524,166.480176 L70.1150984,166.480176 L70.1150984,0.973568282 C70.1150984,0.973568282 11.9457862,-2.92070485 2.37291852,74.9112115 C-3.2794836,120.872396 2.94049524,166.480176 2.94049524,166.480176" id="Fill-3" fill="#4D99A3" mask="url(#mask-4)"></path>
                        </g>
                        <path d="M137.289702,220.684564 L70.1150984,220.684564 L70.1150984,55.1779559 C70.1150984,55.1779559 128.527797,53.4742115 137.857278,129.115599 C143.525257,175.074837 137.289702,220.684564 137.289702,220.684564" id="Fill-6" fill="#6AB7C7"></path>
                        <path d="M104.189172,131.116282 C104.189172,134.342687 101.574231,136.957692 98.3479026,136.957692 L42.8558392,136.957692 C39.6295111,136.957692 37.0145693,134.342687 37.0145693,131.116282 L37.0145693,112.618485 C37.0145693,109.392079 39.6295111,106.777075 42.8558392,106.777075 L98.3479026,106.777075 C101.574231,106.777075 104.189172,109.392079 104.189172,112.618485 L104.189172,131.116282 Z" id="Fill-8" fill="#F8D5E2"></path>
                        <path d="M70.1150984,136.957692 L98.3479026,136.957692 C101.574231,136.957692 104.189172,134.342687 104.189172,131.116282 L104.189172,112.618485 C104.189172,109.392079 101.574231,106.777075 98.3479026,106.777075 L70.1150984,106.777075 L70.1150984,136.957692 Z" id="Fill-10" fill="#ED94B4"></path>
                        <path d="M100.294993,128.501764 C100.294993,131.155711 99.1053206,133.062932 96.1360085,133.062932 L45.0677333,133.062932 C42.0984212,133.062932 40.9087492,131.155711 40.9087492,128.501764 L40.9087492,115.233002 C40.9087492,112.579055 42.0984212,110.670861 45.0677333,110.670861 L96.1360085,110.670861 C99.1053206,110.670861 100.294993,112.579055 100.294993,115.233002 L100.294993,128.501764 Z" id="Fill-12" fill="#424260"></path>
                        <path d="M70.1150984,133.063419 L96.1360085,133.063419 C99.1053206,133.063419 100.294993,131.155225 100.294993,128.502251 L100.294993,115.232515 C100.294993,112.579542 99.1053206,110.671348 96.1360085,110.671348 L70.1150984,110.671348 L70.1150984,133.063419 Z" id="Fill-14" fill="#313143"></path>
                        <path d="M33.7694519,89.5773361 C28.4149545,89.4147502 22.0869122,95.4187458 25.6569016,98.0152524 C29.2259175,100.610785 30.8488169,96.0681159 34.4188063,95.7429441 C37.9878222,95.4187458 39.9271238,100.29827 42.5313566,98.8262348 C46.2629545,96.7165123 41.5694942,89.8139132 33.7694519,89.5773361" id="Fill-16" fill="#313143"></path>
                        <path d="M105.750544,89.5773361 C111.105041,89.4147502 117.433084,95.4187458 113.863094,98.0152524 C110.294078,100.610785 108.671179,96.0681159 105.101189,95.7429441 C101.532174,95.4187458 99.592872,100.29827 96.9886392,98.8262348 C93.2570413,96.7165123 97.9505016,89.8139132 105.750544,89.5773361" id="Fill-18" fill="#313143"></path>
                        <path d="M51.6262138,112.618485 L56.9261926,112.618485 C56.9261926,112.618485 57.9863831,116.593564 54.1876106,116.593564 C50.7324995,116.593564 51.6262138,112.618485 51.6262138,112.618485" id="Fill-20" fill="#FFFFFF"></path>
                        <path d="M59.4145735,112.618485 L64.7145524,112.618485 C64.7145524,112.618485 65.7747429,116.593564 61.9759704,116.593564 C58.5208593,116.593564 59.4145735,112.618485 59.4145735,112.618485" id="Fill-22" fill="#FFFFFF"></path>
                        <path d="M67.2029333,112.618485 L72.5029122,112.618485 C72.5029122,112.618485 73.5631026,116.593564 69.7643302,116.593564 C66.309219,116.593564 67.2029333,112.618485 67.2029333,112.618485" id="Fill-24" fill="#FFFFFF"></path>
                        <path d="M74.9912931,112.618485 L80.291272,112.618485 C80.291272,112.618485 81.3514624,116.593564 77.5526899,116.593564 C74.0975788,116.593564 74.9912931,112.618485 74.9912931,112.618485" id="Fill-26" fill="#FFFFFF"></path>
                        <path d="M82.7796529,112.618485 L88.0796317,112.618485 C88.0796317,112.618485 89.1398222,116.593564 85.3410497,116.593564 C81.8859386,116.593564 82.7796529,112.618485 82.7796529,112.618485" id="Fill-28" fill="#FFFFFF"></path>
                        <path d="M63.3087534,131.116282 L68.6087323,131.116282 C68.6087323,131.116282 69.6689228,127.141203 65.8701503,127.141203 C62.4150392,127.141203 63.3087534,131.116282 63.3087534,131.116282" id="Fill-30" fill="#FFFFFF"></path>
                        <path d="M71.0971132,131.116282 L76.3970921,131.116282 C76.3970921,131.116282 77.4572825,127.141203 73.6585101,127.141203 C70.2033989,127.141203 71.0971132,131.116282 71.0971132,131.116282" id="Fill-32" fill="#FFFFFF"></path>
                        <path d="M137.383843,66.842959 L127.378722,56.8375978 L167.074044,17.1413247 C180.153621,30.2212145 186.505029,45.5656242 181.211865,47.1535141 C174.390235,49.1999546 157.453473,48.3617123 137.383843,66.842959" id="Fill-34" fill="#F8D5E2"></path>
                        <path d="M116.255289,67.9613943 C116.255289,67.9613943 109.373299,74.8435485 106.727204,77.489707 C109.480389,80.2439317 116.652495,83.7098348 123.402083,76.9610595 C130.945109,69.4168789 116.255289,67.9613943 116.255289,67.9613943" id="Fill-36" fill="#7C2846"></path>
                        <path d="M137.38102,71.6182141 L128.646375,80.3530687 C127.331115,81.6683595 124.931327,81.9273286 123.616068,80.6110643 L113.610946,70.6057031 L127.378819,56.8375004 L137.383941,66.8428617 C138.6992,68.1581524 138.696279,70.3029233 137.38102,71.6182141" id="Fill-38" fill="#BF3A63"></path>
                        <g id="Group-42" stroke-width="1" fill="none" transform="translate(116.825397, 0.658132)">
                            <mask id="mask-6" fill="white">
                                <use xlink:href="#path-5"></use>
                            </mask>
                            <g id="Clip-41"></g>
                            <path d="M0.382992593,46.0087925 L10.5536169,56.1796604 L50.2489397,16.4833872 C36.4810667,2.71518458 21.7425693,-3.03081542 20.1547175,2.26247533 C18.1083259,9.08426828 18.8637968,25.9386824 0.382992593,46.0087925" id="Fill-40" fill="#F8BACD" mask="url(#mask-6)"></path>
                        </g>
                        <path d="M116.255289,67.9613943 C116.255289,67.9613943 109.373299,74.8435485 106.727204,77.489707 C103.284749,74.0481432 100.507225,67.5641784 107.255839,60.8144295 C114.799839,53.2712225 116.255289,67.9613943 116.255289,67.9613943" id="Fill-43" fill="#5B1D36"></path>
                        <path d="M111.910163,46.1467471 L103.175517,54.8816018 C101.860258,56.1968925 102.125062,59.1195445 103.440322,60.4348352 L113.610946,70.6057031 L127.378819,56.8375004 L117.208195,46.6666326 C115.892935,45.3513419 113.225422,44.8314564 111.910163,46.1467471" id="Fill-45" fill="#7C2846"></path>
                        <path d="M128.829888,80.5361969 C128.829888,80.5361969 136.505316,94.2995317 137.829338,96.9466639 C139.152385,99.593796 146.563983,91.9181837 145.504766,89.2710515 C144.446523,86.6239194 136.637719,72.1985581 136.637719,72.1985581 L128.829888,80.5361969 Z" id="Fill-47" fill="#7C2846"></path>
                        <path d="M134.369067,82.924652 C134.369067,85.4783216 132.298337,87.5491013 129.744728,87.5491013 C127.19112,87.5491013 125.120389,85.4783216 125.120389,82.924652 C125.120389,80.3709824 127.19112,78.3002026 129.744728,78.3002026 C132.298337,78.3002026 134.369067,80.3709824 134.369067,82.924652" id="Fill-49" fill="#4D99A3"></path>
                        <path d="M29.0728762,116.704453 C29.0728762,120.302762 26.1551619,123.220546 22.5569397,123.220546 C18.9587175,123.220546 16.0410032,120.302762 16.0410032,116.704453 C16.0410032,113.106145 18.9587175,110.188361 22.5569397,110.188361 C26.1551619,110.188361 29.0728762,113.106145 29.0728762,116.704453" id="Fill-51" fill="#6AB7C7"></path>
                        <path d="M124.480284,116.704453 C124.480284,120.302762 121.562569,123.220546 117.964347,123.220546 C114.366125,123.220546 111.448411,120.302762 111.448411,116.704453 C111.448411,113.106145 114.366125,110.188361 117.964347,110.188361 C121.562569,110.188361 124.480284,113.106145 124.480284,116.704453" id="Fill-53" fill="#82CED8"></path>
                    </g>
                </g>
            </g>
        </g>
    </g>
</svg>