<?xml version="1.0" encoding="UTF-8"?>
<svg width="162px" height="179px" viewBox="0 0 162 179" version="1.1" xmlns="http://www.w3.org/2000/svg" xmlns:xlink="http://www.w3.org/1999/xlink">
    <!-- Generator: Sketch 40.3 (33839) - http://www.bohemiancoding.com/sketch -->
    <title>image-joker@3x</title>
    <desc>Created with Sketch.</desc>
    <defs>
        <path d="M0,5.99856619 C0,2.68564956 2.68256989,1.08982038e-13 5.99856619,1.07969627e-13 L214.001434,4.44639944e-14 C217.31435,4.34525234e-14 220,2.68256989 220,5.99856619 L220,214.001434 C220,217.31435 217.31743,220 214.001434,220 L5.99856619,220 C2.68564956,220 0,217.31743 0,214.001434 L0,5.99856619 Z" id="path-1"></path>
        <polygon id="path-3" points="12.08335 0.167 0 0.167 0 24.333 24.1667 24.333 24.1667 0.167 12.08335 0.167"></polygon>
    </defs>
    <g id="Illustrations" stroke="none" stroke-width="1" fill="none" fill-rule="evenodd">
        <g id="joker" transform="translate(-29.000000, -41.000000)">
            <g id="image-joker">
                <mask id="mask-2" fill="white">
                    <use xlink:href="#path-1"></use>
                </mask>
                <g id="Mask" transform="translate(110.000000, 110.000000) scale(1, -1) translate(-110.000000, -110.000000) "></g>
                <g id="illustration" mask="url(#mask-2)">
                    <g transform="translate(29.000000, 40.000000)">
                        <path d="M6.0833,199.833 L82.4583,199.833 L82.4583,39.833 C82.4583,39.833 22.5203,35.833 12.6883,115.778 C6.8813,162.987 6.0833,199.833 6.0833,199.833" id="Fill-1" fill="#313143"></path>
                        <path d="M82.4583,151.833 L82.4583,42.833 C62.4583,42.833 27.7913,59.5 22.4583,96.166 C16.0033,140.545 64.4583,151.5 82.4583,151.833" id="Fill-3" fill="#424260"></path>
                        <path d="M158.0833,199.833 L82.4583,199.833 L82.4583,39.833 C82.4583,39.833 142.2703,38.083 151.8533,115.778 C157.6763,162.985 158.0833,199.833 158.0833,199.833" id="Fill-5" fill="#424260"></path>
                        <path d="M80.4583,151.833 L80.4583,42.833 C100.4583,42.833 135.1253,59.5 140.4583,96.166 C146.9133,140.545 98.4583,151.5 80.4583,151.833" id="Fill-7" fill="#313143"></path>
                        <path d="M44.7917,28.4997 C48.7517,35.0217 50.4587,43.1667 50.1697,49.8057 C54.8727,51.7277 66.7537,55.8327 82.4587,55.8327 L82.4587,24.8327 C50.9587,-12.6673 2.4587,13.3327 2.4587,13.3327 C2.4587,13.3327 33.4587,9.8327 44.7917,28.4997" id="Fill-9" fill="#6AB7C7"></path>
                        <path d="M119.125,28.4997 C115.165,35.0217 113.458,43.1667 113.747,49.8057 C109.044,51.7277 97.163,55.8327 81.458,55.8327 L81.458,24.8327 C112.958,-12.6673 161.458,13.3327 161.458,13.3327 C161.458,13.3327 130.458,9.8327 119.125,28.4997" id="Fill-11" fill="#4D99A3"></path>
                        <path d="M97.1667,97.083 C97.1667,105.413 90.4137,112.166 82.0837,112.166 C73.7527,112.166 66.9997,105.413 66.9997,97.083 C66.9997,88.753 73.7527,82 82.0837,82 C90.4137,82 97.1667,88.753 97.1667,97.083" id="Fill-13" fill="#BF3A63"></path>
                        <path d="M82.4583,112.1493 C90.4583,111.9683 97.2043,105.2993 97.2043,97.0833 C97.2043,88.8663 90.4583,82.1983 82.4583,82.0163 L82.4583,112.1493 Z" id="Fill-15" fill="#E85288"></path>
                        <g id="Group-19" stroke-width="1" fill="none" transform="translate(0.000000, 0.833000)">
                            <mask id="mask-4" fill="white">
                                <use xlink:href="#path-3"></use>
                            </mask>
                            <g id="Clip-18"></g>
                            <path d="M24.1667,12.25 C24.1667,18.923 18.7567,24.333 12.0837,24.333 C5.4097,24.333 -0.0003,18.923 -0.0003,12.25 C-0.0003,5.577 5.4097,0.167 12.0837,0.167 C18.7567,0.167 24.1667,5.577 24.1667,12.25" id="Fill-17" fill="#BF3A63" mask="url(#mask-4)"></path>
                        </g>
                        <path d="M12.4583,25.1527 C18.4583,25.0077 24.2713,19.6647 24.2713,13.0827 C24.2713,6.5007 18.4583,1.1587 12.4583,1.0137 L12.4583,25.1527 Z" id="Fill-20" fill="#E85288"></path>
                        <path d="M159.1667,13.083 C159.1667,19.756 153.7567,25.166 147.0837,25.166 C140.4097,25.166 134.9997,19.756 134.9997,13.083 C134.9997,6.41 140.4097,1 147.0837,1 C153.7567,1 159.1667,6.41 159.1667,13.083" id="Fill-22" fill="#BF3A63"></path>
                        <path d="M147.4583,25.1527 C153.4583,25.0077 159.2713,19.6647 159.2713,13.0827 C159.2713,6.5007 153.4583,1.1587 147.4583,1.0137 L147.4583,25.1527 Z" id="Fill-24" fill="#E85288"></path>
                        <path d="M63.4583,89.833 C63.4583,100.142 58.3843,104.5 52.1253,104.5 C45.8653,104.5 40.7913,100.142 40.7913,89.833 C40.7913,79.524 45.8653,71.166 52.1253,71.166 C58.3843,71.166 63.4583,79.524 63.4583,89.833" id="Fill-26" fill="#FFFFFF"></path>
                        <path d="M123.4583,89.833 C123.4583,100.142 118.3843,104.5 112.1253,104.5 C105.8653,104.5 100.7913,100.142 100.7913,89.833 C100.7913,79.524 105.8653,71.166 112.1253,71.166 C118.3843,71.166 123.4583,79.524 123.4583,89.833" id="Fill-28" fill="#F2ECEC"></path>
                        <path d="M82.4583,123.833 L82.4583,147.833 C54.4583,147.833 30.0853,127.94 38.4583,114.333 C46.4583,101.333 62.4583,123.833 82.4583,123.833" id="Fill-30" fill="#6AB7C7"></path>
                        <path d="M51.8386,88.5243 C48.8456,88.4333 45.3086,91.7893 47.3036,93.2403 C49.2996,94.6913 50.2066,92.1523 52.2016,91.9703 C54.1966,91.7893 55.2796,94.5163 56.7356,93.6933 C58.8216,92.5143 56.1986,88.6563 51.8386,88.5243" id="Fill-32" fill="#313143"></path>
                        <path d="M112.3485,88.5243 C115.3415,88.4333 118.8785,91.7893 116.8835,93.2403 C114.8875,94.6913 113.9805,92.1523 111.9855,91.9703 C109.9905,91.7893 108.9075,94.5163 107.4515,93.6933 C105.3655,92.5143 107.9885,88.6563 112.3485,88.5243" id="Fill-34" fill="#313143"></path>
                        <path d="M82.4583,131.833 L82.4583,138.833 C60.4583,138.833 43.9583,124 46.6253,121 C48.3473,119.062 63.4583,131.833 82.4583,131.833" id="Fill-36" fill="#111113"></path>
                        <path d="M80.4583,123.833 L80.4583,147.833 C108.4583,147.833 132.8313,127.94 124.4583,114.333 C116.4583,101.333 100.4583,123.833 80.4583,123.833" id="Fill-38" fill="#4D99A3"></path>
                        <path d="M80.4583,131.833 L80.4583,138.833 C102.4583,138.833 118.9583,124 116.2913,121 C114.5693,119.062 99.4583,131.833 80.4583,131.833" id="Fill-40" fill="#1D1D26"></path>
                    </g>
                </g>
            </g>
        </g>
    </g>
</svg>