<?xml version="1.0" encoding="UTF-8"?>
<svg width="189px" height="207px" viewBox="0 0 189 207" version="1.1" xmlns="http://www.w3.org/2000/svg" xmlns:xlink="http://www.w3.org/1999/xlink">
    <!-- Generator: Sketch 40.3 (33839) - http://www.bohemiancoding.com/sketch -->
    <title>image-beer@3x</title>
    <desc>Created with Sketch.</desc>
    <defs>
        <path d="M0,5.99856619 C0,2.68564956 2.68256989,1.08982038e-13 5.99856619,1.07969627e-13 L214.001434,4.44639944e-14 C217.31435,4.34525234e-14 220,2.68256989 220,5.99856619 L220,214.001434 C220,217.31435 217.31743,220 214.001434,220 L5.99856619,220 C2.68564956,220 0,217.31743 0,214.001434 L0,5.99856619 Z" id="path-1"></path>
        <polygon id="path-3" points="30.2724 0.655 0.2634 0.655 0.2634 30.9811 30.2724 30.9811 30.2724 0.655"></polygon>
        <polygon id="path-5" points="0.607000647 129 174.7604 129 174.7604 0.852358831 0.607000647 0.852358831 0.607000647 129"></polygon>
    </defs>
    <g id="Illustrations" stroke="none" stroke-width="1" fill="none" fill-rule="evenodd">
        <g id="beer" transform="translate(-15.000000, -13.000000)">
            <g id="image-beer">
                <mask id="mask-2" fill="white">
                    <use xlink:href="#path-1"></use>
                </mask>
                <g id="Mask" transform="translate(110.000000, 110.000000) scale(1, -1) translate(-110.000000, -110.000000) "></g>
                <g id="illustration" mask="url(#mask-2)">
                    <g transform="translate(15.000000, 12.000000)">
                        <path d="M122.3506,105.345 C161.6026,95.589 176.3506,66.012 162.2106,38.574 C161.3506,36.012 164.2006,29.684 164.2006,29.684 C182.0176,41.345 211.2086,97.951 149.0046,138.109 C83.5096,180.39 122.3506,105.345 122.3506,105.345" id="Fill-1" fill="#7C2846"></path>
                        <path d="M171.5798,50.4183 C172.7518,51.5903 172.7518,53.4893 171.5798,54.6613 L137.6388,88.6023 C136.4668,89.7733 134.5678,89.7733 133.3958,88.6023 L93.7978,49.0043 C92.6268,47.8323 92.6268,45.9333 93.7978,44.7613 L127.7388,10.8203 C128.9108,9.6483 130.8098,9.6483 131.9818,10.8203 L171.5798,50.4183 Z" id="Fill-3" fill="#AADDE5"></path>
                        <path d="M156.5537,32.9174 C153.9177,35.5534 149.6437,35.5534 147.0077,32.9174 C144.3717,30.2814 144.3717,26.0074 147.0077,23.3714 C149.6437,20.7354 153.9177,20.7354 156.5537,23.3714 C159.1897,26.0074 159.1897,30.2814 156.5537,32.9174 M141.3507,17.7144 C135.5907,23.4744 135.5907,32.8144 141.3507,38.5744 C147.1107,44.3344 156.4507,44.3344 162.2107,38.5744 C167.9707,32.8144 167.9707,23.4744 162.2107,17.7144 C156.4507,11.9544 147.1107,11.9544 141.3507,17.7144" id="Fill-5" fill="#407377"></path>
                        <path d="M127.7392,10.8203 L110.7682,27.7913 L154.6092,71.6313 L171.5802,54.6613 C172.7512,53.4893 172.7512,51.5903 171.5802,50.4183 L131.9822,10.8203 C130.8102,9.6483 128.9112,9.6483 127.7392,10.8203" id="Fill-7" fill="#4D99A3"></path>
                        <path d="M165.2158,48.297 C166.3878,49.469 166.3878,51.368 165.2158,52.54 L135.5178,82.238 C134.3458,83.41 132.4458,83.41 131.2748,82.238 L91.6768,42.64 C90.5048,41.469 90.5048,39.569 91.6768,38.397 L121.3748,8.699 C122.5468,7.527 124.4458,7.527 125.6178,8.699 L165.2158,48.297 Z" id="Fill-9" fill="#FFB533"></path>
                        <path d="M121.3752,8.699 L106.5262,23.548 L150.3662,67.389 L165.2162,52.54 C166.3872,51.368 166.3872,49.469 165.2162,48.297 L125.6182,8.699 C124.4462,7.527 122.5472,7.527 121.3752,8.699" id="Fill-11" fill="#EB9A1B"></path>
                        <g id="Group-15" stroke-width="1" fill="none" transform="translate(103.000000, 0.345000)">
                            <mask id="mask-4" fill="white">
                                <use xlink:href="#path-3"></use>
                            </mask>
                            <g id="Clip-14"></g>
                            <path d="M30.2724,12.0131 L11.3044,30.9811 C11.3044,30.9811 4.4694,24.1471 0.2634,19.9411 C5.9204,14.2841 9.0544,3.8371 14.2164,1.2551 C21.5774,-2.4249 30.2724,12.0131 30.2724,12.0131" id="Fill-13" fill="#F2ECEC" mask="url(#mask-4)"></path>
                        </g>
                        <path d="M103.2635,20.2858 C97.6065,25.9428 87.1845,29.0518 84.6035,34.2138 C82.6375,38.1468 86.8145,43.1128 89.8645,46.4998 C92.9145,49.8878 103.6835,63.7878 107.1005,59.8448 C110.5175,55.9018 103.4345,44.4808 107.3505,42.3448 C110.1005,40.8448 112.4145,47.3168 115.3505,46.8448 C118.1125,46.4008 114.3045,31.3268 114.3045,31.3268 C114.3045,31.3268 107.4695,24.4918 103.2635,20.2858" id="Fill-16" fill="#FFFFFF"></path>
                        <g id="Group-20" stroke-width="1" fill="none" transform="translate(14.000000, 81.345000)">
                            <mask id="mask-6" fill="white">
                                <use xlink:href="#path-5"></use>
                            </mask>
                            <g id="Clip-19"></g>
                            <path d="M46.4784,129.0004 L174.7604,129.0004 C173.4264,118.3664 163.4064,52.4444 116.8944,20.9374 C66.2144,-13.3946 23.7444,3.2204 10.3584,19.7554 C-16.5926,53.0494 18.8044,91.2354 38.4224,109.2184 C49.7504,119.6024 48.5594,125.9224 46.4784,129.0004 Z" id="Fill-18" fill="#7C2846" mask="url(#mask-6)"></path>
                        </g>
                        <path d="M130.8948,102.282 C92.6088,76.346 59.0118,79.488 39.0958,89.704 C77.1148,90.865 141.0498,117.713 152.4318,210.345 L188.7608,210.345 C187.4268,199.711 177.4058,133.79 130.8948,102.282" id="Fill-21" fill="#BF3A63"></path>
                        <path d="M107.0356,88.5025 C95.0626,94.4885 63.7286,114.4865 59.0046,123.1485 C54.2796,131.8095 91.2876,155.4315 122.7836,127.8725 C149.7186,104.3045 113.3346,85.3525 107.0356,88.5025" id="Fill-23" fill="#ED94B4"></path>
                        <path d="M107.0356,88.5025 C101.9276,91.0565 93.2966,96.1625 84.7116,101.8475 C97.1116,108.1845 109.4176,117.3305 120.1526,130.0415 C121.0326,129.3545 121.9106,128.6365 122.7836,127.8725 C149.7186,104.3045 113.3346,85.3525 107.0356,88.5025" id="Fill-25" fill="#F8BACD"></path>
                        <path d="M110.0173,92.0117 C101.9813,96.0297 70.0493,116.5477 66.8783,122.3607 C63.7073,128.1737 92.8623,142.0457 118.0593,120.7857 C136.4183,105.2957 114.2453,89.8977 110.0173,92.0117" id="Fill-27" fill="#111113"></path>
                        <path d="M121.3472,117.5227 C133.3792,103.2147 113.9472,90.0467 110.0172,92.0117 C107.5982,93.2207 103.0072,95.9317 97.6932,99.2807 C105.7742,104.4797 113.7182,110.5327 121.3472,117.5227" id="Fill-29" fill="#1D1D26"></path>
                        <path d="M35.5715,112.5997 C31.7225,116.5317 31.8675,125.5607 36.2985,124.6007 C39.0175,124.0117 35.3505,119.3447 38.6835,115.3447 C42.8275,110.3727 48.6045,113.8887 49.6835,111.0117 C50.7115,108.2717 41.1795,106.8717 35.5715,112.5997" id="Fill-31" fill="#111113"></path>
                        <path d="M77.5799,82.4084 C81.8279,78.9104 91.8109,78.8304 90.4739,83.1624 C89.6539,85.8214 85.3189,81.7674 81.0479,84.7454 C75.7389,88.4464 78.7459,92.5044 75.7869,93.3324 C72.9689,94.1214 71.3919,87.5034 77.5799,82.4084" id="Fill-33" fill="#111113"></path>
                        <path d="M91.8506,128.095 C94.9016,129.811 107.6006,124.095 113.6006,120.095 C119.6006,116.095 124.8506,108.095 121.8506,106.095 C120.5416,105.223 115.5866,111.269 108.8506,115.845 C100.1456,121.759 89.5956,126.827 91.8506,128.095" id="Fill-35" fill="#CCCCDB"></path>
                        <path d="M121.8506,106.095 C120.5416,105.223 115.5866,111.269 108.8506,115.845 C108.3026,116.217 107.7476,116.586 107.1886,116.951 C108.7626,118.305 110.3196,119.715 111.8536,121.189 C112.4756,120.816 113.0716,120.448 113.6006,120.095 C119.6006,116.095 124.8506,108.095 121.8506,106.095" id="Fill-37" fill="#FFFFFF"></path>
                        <g id="Group-41" stroke-width="1" fill="none" transform="translate(0.000000, 63.345000)">
                            <path d="M24.3585,37.7559 C24.3585,37.7559 39.8605,35.4809 48.1835,28.1669 C53.6835,23.3329 55.0175,20.6669 55.0175,20.6669 L69.6835,18.9999 C69.6835,18.9999 69.4675,-0.7371 47.3505,0.6669 C26.3505,1.9999 8.3505,24.6669 11.0175,46.9999 C11.0175,46.9999 2.0175,50.6669 0.3505,59.9999 C-2.1215,73.8439 8.6835,87.6669 26.3505,97.6669 C15.6835,78.9999 7.3505,59.3329 24.3585,37.7559" id="Fill-39" fill="#F8D5E2"></path>
                        </g>
                        <path d="M47.3506,64.0116 C42.8436,64.2976 38.4776,65.5726 34.4216,67.6096 C43.3526,68.3566 53.8236,73.1876 49.9996,89.8556 C53.9846,86.0736 55.0176,84.0116 55.0176,84.0116 L69.6836,82.3446 C69.6836,82.3446 69.4676,62.6076 47.3506,64.0116" id="Fill-42" fill="#ED94B4"></path>
                    </g>
                </g>
            </g>
        </g>
    </g>
</svg>