<?xml version="1.0" encoding="UTF-8"?>
<svg width="187px" height="190px" viewBox="0 0 187 190" version="1.1" xmlns="http://www.w3.org/2000/svg" xmlns:xlink="http://www.w3.org/1999/xlink">
    <!-- Generator: Sketch 40.3 (33839) - http://www.bohemiancoding.com/sketch -->
    <title>image-beer-alt@3x</title>
    <desc>Created with Sketch.</desc>
    <defs>
        <path d="M0,5.99856619 C0,2.68564956 2.68256989,1.08982038e-13 5.99856619,1.07969627e-13 L214.001434,4.44639944e-14 C217.31435,4.34525234e-14 220,2.68256989 220,5.99856619 L220,214.001434 C220,217.31435 217.31743,220 214.001434,220 L5.99856619,220 C2.68564956,220 0,217.31743 0,214.001434 L0,5.99856619 Z" id="path-1"></path>
        <polygon id="path-3" points="29.829 30.2286 29.829 0.7286 0.3293 0.7286 0.3293 30.2286 29.829 30.2286"></polygon>
    </defs>
    <g id="Illustrations" stroke="none" stroke-width="1" fill="none" fill-rule="evenodd">
        <g id="beer" transform="translate(-30.000000, -30.000000)">
            <g id="image-beer-alt">
                <mask id="mask-2" fill="white">
                    <use xlink:href="#path-1"></use>
                </mask>
                <g id="Mask" transform="translate(110.000000, 110.000000) scale(1, -1) translate(-110.000000, -110.000000) "></g>
                <g id="illustration" mask="url(#mask-2)">
                    <g transform="translate(30.000000, 29.000000)">
                        <path d="M8.2346,207.028 L77.2346,207.028 L77.2346,37.028 C77.2346,37.028 17.4846,33.028 7.6516,112.973 C1.8456,160.182 8.2346,207.028 8.2346,207.028" id="Fill-1" fill="#7C2846"></path>
                        <path d="M148.4155,175.6882 C175.4795,178.8322 198.0085,145.2632 176.0415,119.0622 C174.1255,116.7772 170.4585,117.3732 169.4455,120.1792 C169.2675,120.6712 169.1255,121.1142 169.0165,121.4802 C168.8265,122.1182 168.5845,122.8922 168.9665,123.4372 C175.2345,132.3612 175.1545,155.1802 147.2345,152.0282 C119.4645,148.8922 141.4475,170.2322 146.3305,174.7132 C146.9095,175.2452 147.6345,175.5972 148.4155,175.6882" id="Fill-3" fill="#7C2846"></path>
                        <path d="M146.2346,207.028 L77.2346,207.028 L77.2346,37.028 C77.2346,37.028 137.2346,35.278 146.8176,112.973 C152.6396,160.18 146.2346,207.028 146.2346,207.028" id="Fill-5" fill="#BF3A63"></path>
                        <g id="Group-9" stroke-width="1" fill="none" transform="translate(0.000000, 0.028000)">
                            <path d="M26.7346,55 C26.7346,55 4.7346,53 0.7346,39.5 C-3.2654,26 10.2346,2 13.2346,1 C16.2346,-8.8817842e-16 7.7346,26 13.7346,30.5 C19.7346,35 43.2346,36 43.2346,36 L26.7346,55 Z" id="Fill-7" fill="#FFFFFF"></path>
                        </g>
                        <path d="M77.2346,27.3142 C77.2346,27.2872 76.6246,27.2692 76.3026,27.2692 C57.7236,27.2692 25.8276,35.9402 21.1826,61.3312 L76.3036,68.4532 C76.3036,68.4532 76.2346,67.6082 77.2346,66.1642 L77.2346,27.3142 Z" id="Fill-10" fill="#F8D5E2"></path>
                        <path d="M77.2346,56.028 L12.2346,56.028 C10.5776,56.028 9.2346,57.371 9.2346,59.028 L9.2346,79.028 C9.2346,80.685 10.5776,82.028 12.2346,82.028 L77.2346,82.028 L77.2346,56.028 Z" id="Fill-12" fill="#424260"></path>
                        <g id="Group-16" stroke-width="1" fill="none" transform="translate(111.000000, 0.028000)">
                            <path d="M16.5,55 C16.5,55 38.5,53 42.5,39.5 C46.5,26 33,2 30,1 C27,-8.8817842e-16 35.5,26 29.5,30.5 C23.5,35 0,36 0,36 L16.5,55 Z" id="Fill-14" fill="#F2ECEC"></path>
                        </g>
                        <path d="M77.2346,27.3142 C77.2346,27.2872 77.7286,27.2692 78.0516,27.2692 C96.6306,27.2692 128.4686,35.9402 133.1136,61.3312 L78.0796,68.4532 C78.0796,68.4532 77.2346,67.6082 77.2346,66.1642 L77.2346,27.3142 Z" id="Fill-17" fill="#F8BACD"></path>
                        <path d="M77.2346,56.028 L141.9996,56.028 C143.6566,56.028 145.2346,57.371 145.2346,59.028 L145.2346,79.028 C145.2346,80.685 143.6566,82.028 141.9996,82.028 L77.2346,82.028 L77.2346,56.028 Z" id="Fill-19" fill="#313143"></path>
                        <path d="M77.2346,132.028 L77.2346,108.028 C65.2346,108.028 44.8956,101.399 41.7346,114.528 C38.0446,129.856 61.3246,133.925 77.2346,132.028" id="Fill-21" fill="#ED94B4"></path>
                        <path d="M77.2346,127.528 L77.2346,112.799 C66.7836,112.799 50.3006,107.285 47.1886,115.646 C44.1406,123.834 64.1706,127.528 77.2346,127.528" id="Fill-23" fill="#313143"></path>
                        <path d="M77.2346,125.028 L77.2346,120.028 C72.2346,120.028 54.6096,116.903 54.2346,119.278 C53.7946,122.064 62.4846,124.778 77.2346,125.028" id="Fill-25" fill="#FFFFFF"></path>
                        <path d="M77.2346,132.028 L77.2346,108.028 C89.2346,108.028 109.7346,101.361 112.7346,114.528 C116.0486,129.072 92.2346,132.028 77.2346,132.028" id="Fill-27" fill="#F8D5E2"></path>
                        <path d="M77.2346,127.528 L77.2346,112.799 C88.2346,112.799 104.1686,107.285 107.2806,115.646 C110.3286,123.834 90.2346,127.528 77.2346,127.528" id="Fill-29" fill="#313143"></path>
                        <path d="M77.2346,125.028 L77.2346,120.028 C82.2346,120.028 99.8596,116.903 100.2346,119.278 C100.6746,122.064 92.2346,124.778 77.2346,125.028" id="Fill-31" fill="#F2ECEC"></path>
                        <path d="M104.5259,97.0831 C104.5259,99.2571 102.7629,101.0201 100.5889,101.0201 C98.4149,101.0201 96.6519,99.2571 96.6519,97.0831 C96.6519,94.9091 98.4149,93.1461 100.5889,93.1461 C102.7629,93.1461 104.5259,94.9091 104.5259,97.0831" id="Fill-33" fill="#191921"></path>
                        <path d="M57.5259,97.0831 C57.5259,99.2571 55.7629,101.0201 53.5889,101.0201 C51.4149,101.0201 49.6519,99.2571 49.6519,97.0831 C49.6519,94.9091 51.4149,93.1461 53.5889,93.1461 C55.7629,93.1461 57.5259,94.9091 57.5259,97.0831" id="Fill-35" fill="#0B0B0C"></path>
                        <path d="M170.2346,140.028 C170.2346,141.685 168.8916,143.028 167.2346,143.028 L119.2346,143.028 C117.5776,143.028 116.2346,141.685 116.2346,140.028 L116.2346,84.028 C116.2346,82.371 117.5776,81.028 119.2346,81.028 L167.2346,81.028 C168.8916,81.028 170.2346,82.371 170.2346,84.028 L170.2346,140.028 Z" id="Fill-37" fill="#AADDE5"></path>
                        <g id="Group-41" stroke-width="1" fill="none" transform="translate(157.000000, 95.028000)">
                            <mask id="mask-4" fill="white">
                                <use xlink:href="#path-3"></use>
                            </mask>
                            <g id="Clip-40"></g>
                            <path d="M15.0793,22.2286 C11.3513,22.2286 8.3293,19.2066 8.3293,15.4786 C8.3293,11.7506 11.3513,8.7286 15.0793,8.7286 C18.8073,8.7286 21.8293,11.7506 21.8293,15.4786 C21.8293,19.2066 18.8073,22.2286 15.0793,22.2286 M15.0793,0.7286 C6.9333,0.7286 0.3293,7.3326 0.3293,15.4786 C0.3293,23.6246 6.9333,30.2286 15.0793,30.2286 C23.2253,30.2286 29.8293,23.6246 29.8293,15.4786 C29.8293,7.3326 23.2253,0.7286 15.0793,0.7286" id="Fill-39" fill="#407377" mask="url(#mask-4)"></path>
                        </g>
                        <path d="M167.3293,81.028 L143.2343,81.028 L143.2343,143.028 L167.3293,143.028 C168.9863,143.028 170.2343,141.913 170.2343,140.257 L170.2343,84.257 C170.2343,82.6 168.9863,81.028 167.3293,81.028" id="Fill-42" fill="#4D99A3"></path>
                        <path d="M167.2346,134.028 C167.2346,135.685 165.8916,137.028 164.2346,137.028 L122.2346,137.028 C120.5776,137.028 119.2346,135.685 119.2346,134.028 L119.2346,78.028 C119.2346,76.371 120.5776,75.028 122.2346,75.028 L164.2346,75.028 C165.8916,75.028 167.2346,76.371 167.2346,78.028 L167.2346,134.028 Z" id="Fill-44" fill="#FFB533"></path>
                        <path d="M164.3293,75.028 L143.2343,75.028 L143.2343,137.028 L164.3293,137.028 C165.9863,137.028 167.2343,135.913 167.2343,134.257 L167.2343,78.257 C167.2343,76.6 165.9863,75.028 164.3293,75.028" id="Fill-46" fill="#EB9A1B"></path>
                        <path d="M170.1545,86.028 L143.2345,86.028 L143.2345,70.643 C151.2345,70.643 160.8855,65.357 166.3605,67.182 C174.1675,69.785 170.1545,86.028 170.1545,86.028" id="Fill-48" fill="#F2ECEC"></path>
                        <path d="M143.2346,70.6429 C135.2346,70.6429 125.7136,65.4719 120.2386,67.2969 C116.0676,68.6869 115.5336,75.1529 115.2946,79.7049 C115.0556,84.2569 112.8536,101.7009 118.0576,101.3289 C123.2626,100.9569 122.3356,87.8719 126.6156,89.1309 C129.6206,90.0149 130.6356,96.2269 133.0456,97.9699 C135.3126,99.6089 143.2346,86.2569 143.2346,86.2569 L143.2346,70.6429 Z" id="Fill-50" fill="#FFFFFF"></path>
                    </g>
                </g>
            </g>
        </g>
    </g>
</svg>