<?xml version="1.0" encoding="UTF-8"?>
<svg width="219px" height="69px" viewBox="0 0 219 69" version="1.1" xmlns="http://www.w3.org/2000/svg" xmlns:xlink="http://www.w3.org/1999/xlink">
    <!-- Generator: Sketch 40.3 (33839) - http://www.bohemiancoding.com/sketch -->
    <title>logo</title>
    <desc>Created with Sketch.</desc>
    <defs></defs>
    <g id="Landing" stroke="none" stroke-width="1" fill="none" fill-rule="evenodd">
        <g id="index" transform="translate(-20.000000, -20.000000)">
            <g id="logo" transform="translate(20.000000, 20.000000)">
                <text id="SlackHeroes" font-family="ProximaNovaA-Bold, Proxima Nova Alt" font-size="24" font-weight="bold" fill="#F2EBEB">
                    <tspan x="81.284" y="42">SlackHeroes</tspan>
                </text>
                <g id="logo-symbol">
                    <path d="M43.0434783,13.0434783 L3.91304348,13.0434783 C1.75173913,13.0434783 0,14.7952174 0,16.9565217 L0,52.173913 C0,54.3352174 1.75173913,56.0869565 3.91304348,56.0869565 L5.13,56.0869565 L10.4347826,48.5869565 L6.52173913,68.1521739 L22.6082609,56.0869565 L43.0434783,56.0869565 C45.2047826,56.0869565 46.9565217,54.3352174 46.9565217,52.173913 L46.9565217,16.9565217 C46.9565217,14.7952174 45.2047826,13.0434783 43.0434783,13.0434783" id="Fill-1" fill="#FFFFFF"></path>
                    <path d="M56.0869565,0 L16.9565217,0 C14.7952174,0 13.0434783,1.75173913 13.0434783,3.91304348 L13.0434783,39.1304348 C13.0434783,41.2917391 14.7952174,43.0434783 16.9565217,43.0434783 L38.043913,43.0434783 L54.1304348,55.1086957 L50.2173913,35.5434783 L55.5221739,43.0434783 L56.0869565,43.0434783 C58.2482609,43.0434783 60,41.2917391 60,39.1304348 L60,3.91304348 C60,1.75173913 58.2482609,0 56.0869565,0" id="Fill-3" fill="#81CFE0"></path>
                    <path d="M45.6315652,11.6008696 C39.4828696,10.5756522 36.6746087,16.3408696 36.6746087,16.3408696 C36.6746087,16.3408696 33.5702609,10.5756522 27.4215652,11.6008696 C21.2728696,12.626087 20.8398261,21.2073913 24.9393913,25.9473913 C29.4811304,31.1986957 36.6746087,34.0173913 36.6746087,34.0173913 C36.6746087,34.0173913 43.7206957,31.1986957 48.2624348,25.9473913 C52.3606957,21.2073913 51.7802609,12.626087 45.6315652,11.6008696" id="Fill-5" fill="#F33D6D"></path>
                </g>
            </g>
        </g>
    </g>
</svg>